<svg xmlns="http://www.w3.org/2000/svg" viewBox="0 0 64 64">
  <!-- runsten: ancient standing stone, glowing carved runes, mossy foot -->
  <ellipse cx="32" cy="54" rx="20" ry="7" fill="#4a4f46"/>
  <ellipse cx="32" cy="52" rx="20" ry="7" fill="#646a5e"/>
  <path d="M20 52 Q16 24 24 12 Q32 4 40 12 Q48 24 44 52 Z" fill="#7d837b"/>
  <path d="M23 48 Q20 26 27 14" fill="none" stroke="#969d92" stroke-width="4" stroke-linecap="round"/>
  <g stroke="#7fe3ef" stroke-width="2.5" stroke-linecap="round" fill="none">
    <path d="M32 16 L32 26 M32 18 L37 22 M32 22 L37 26"/>
    <path d="M29 32 L35 32 M32 32 L32 42 M29 42 L35 42"/>
    <circle cx="32" cy="47" r="2.5"/>
  </g>
  <circle cx="32" cy="30" r="13" fill="#7fe3ef" opacity="0.12"/>
  <path d="M20 50 Q24 45 28 50 Q24 53 20 50 Z" fill="#4f7245"/>
  <path d="M44 51 Q41 46 37 50 Q40 54 44 51 Z" fill="#46683d"/>
</svg>
