<svg xmlns="http://www.w3.org/2000/svg" viewBox="0 0 64 64">
  <!-- tomte: gnome guardian on a wooden stump, red cap, porridge bowl ready -->
  <ellipse cx="32" cy="54" rx="18" ry="7" fill="#4a3927"/>
  <ellipse cx="32" cy="51" rx="18" ry="7" fill="#6b5236"/>
  <ellipse cx="32" cy="51" rx="12" ry="4.5" fill="#8a6c47"/>
  <path d="M24 44 Q24 32 32 32 Q40 32 40 44 L40 50 L24 50 Z" fill="#5d6b7a"/>
  <path d="M27 44 Q27 35 31 34" fill="none" stroke="#74859a" stroke-width="3" stroke-linecap="round"/>
  <path d="M25 33 Q25 39 32 41 Q39 39 39 33 Q36 29 32 29 Q28 29 25 33 Z" fill="#e8e2d6"/>
  <ellipse cx="32" cy="28" rx="6.5" ry="5" fill="#d8ab83"/>
  <circle cx="32" cy="31" r="2" fill="#c08a60"/>
  <circle cx="29" cy="27" r="2" fill="#ffffff"/>
  <circle cx="35" cy="27" r="2" fill="#ffffff"/>
  <circle cx="29.5" cy="27.3" r="1" fill="#2a2118"/>
  <circle cx="34.5" cy="27.3" r="1" fill="#2a2118"/>
  <path d="M22 24 Q24 10 33 12 Q44 16 42 24 Q37 26 32 25 Q26 26 22 24 Z" fill="#b03a2e"/>
  <path d="M26 17 Q30 13 34 14" fill="none" stroke="#c95a48" stroke-width="2.5" stroke-linecap="round"/>
  <circle cx="33.5" cy="12" r="2.2" fill="#e8e2d6"/>
  <ellipse cx="45" cy="42" rx="6" ry="4" fill="#7a4f2a"/>
  <ellipse cx="45" cy="40.5" rx="6" ry="3" fill="#f2e2c4"/>
  <line x1="48" y1="36" x2="51" y2="31" stroke="#a8814f" stroke-width="2" stroke-linecap="round"/>
</svg>
